<svg xmlns="http://www.w3.org/2000/svg" data-name="Layer 1" width="693" height="576.9" viewBox="0 0 693 576.9" xmlns:xlink="http://www.w3.org/1999/xlink"><path d="M173 444h497.3a21.7 21.7 0 0 0 21.7-21.7V134.7a21.3 21.3 0 0 0-.8-5.7 21.7 21.7 0 0 0-20.9-16H476a60.4 60.4 0 0 0-8.1 25c-2.5 25.7 12.3 49.4 25.5 71.6 13.1 22.2 25.7 48 18.7 72.9a58 58 0 0 1-33.4 36.1 93.7 93.7 0 0 1-48.5 7.4 152.1 152.1 0 0 1-29.3-6.7 407 407 0 0 1-36.8-14.6l-.7-.3c-9.4-4-18.8-8.2-28.3-11.8a173.1 173.1 0 0 0-34.6-9.6 84.8 84.8 0 0 0-52.2 6.4c-26.2 13.3-40.2 42-51.2 69.2-11 27.5-21 56-24.2 85.4Z" fill="#15eb72"/><path d="M1 334v88.3A21.7 21.7 0 0 0 22.7 444h82.7c1.4-13.4.2-26.6-5-39-11.5-27-39.2-43-65.6-55.9-11-5.3-22.3-10.5-33.8-15.2Z" fill="#15eb72"/><path d="M87.6 423.6a21.7 21.7 0 0 0 21.7 21.7H192c1.4-13.4.2-26.6-5-39-2.7-6.4-9-13.4-17.2-20.5a49.8 49.8 0 0 0-82.2 37.8Z" fill="#15eb72"/><path d="M0 422.3V134.7A22.7 22.7 0 0 1 22.7 112h647.6a22.7 22.7 0 0 1 22.7 22.7v287.6a22.7 22.7 0 0 1-22.7 22.7H22.7A22.7 22.7 0 0 1 0 422.3ZM22.7 114A20.7 20.7 0 0 0 2 134.7v287.6A20.7 20.7 0 0 0 22.7 443h647.6a20.7 20.7 0 0 0 20.7-20.7V134.7a20.7 20.7 0 0 0-20.7-20.7Z" fill="#3f3d56"/><path d="M214.3 443.3h29.4c5-17 12.3-35 19-51.3 12.7-31.4 29-64.5 59.2-79.8 13-6.5 27.1-9 41.5-9 20 .3 40.4 5.6 59.2 12.7 7.6 2.9 15.2 6 22.8 9.3 28.5 12.3 56.7 25.6 87.4 29.2 38.8 4.6 84.5-12.8 95-50.2 8.1-28.6-6.4-58.3-21.7-84-15.3-25.5-32.4-52.8-29.6-82.5v-.3c1.1-10.6 7.5-18.2 16.3-23.1h-38.6c-.5 27.6 15.5 52 29.9 76 15.3 25.6 29.8 55.3 21.7 84-10.6 37.4-98.3-6.5-137.2-11-11-1.3 6.5 3.2-4 0-16.3-5.2-18.2 42-34.1 35-10-4.3-19.9-8.6-30-12.4l-12.7-4.4c-29-9.2-60.6-12.7-87.3.5l-.6.3c-30.3 15.3-46.6 48.4-59.3 79.7a442 442 0 0 0-26.3 81.3Z" fill="#3f3d56"/><path d="M214.6 237.1H23.3a6 6 0 1 0 0 11.8h191.3a6 6 0 1 0 0-11.8Z" fill="#3f3d56"/><path d="M82.8 204H23.5a6 6 0 1 0 0 11.8h59.3a6 6 0 0 0 0-11.8Z" fill="#3f3d56"/><polygon points="311.5 549.9 299.4 549.8 294 502 311.9 502.1 311.5 549.9" fill="#ffb6b6"/><path d="M272.7 569.2a5.4 5.4 0 0 0 5.3 5.5l24.1.2 4.3-8.6 1.5 8.6 9.1.1-2.3-30.7-3.2-.2-12.9-.9-4.1-.2-.1 8.6-19.4 13.2a5.4 5.4 0 0 0-2.3 4.4Z" fill="#2f2e41"/><polygon points="434.5 549.9 422.4 549.8 417 502 434.9 502.1 434.5 549.9" fill="#ffb6b6"/><path d="M395.7 569.2a5.4 5.4 0 0 0 5.3 5.5l24.1.2 4.3-8.6 1.5 8.6 9.1.1-2.3-30.7-3.2-.2-12.9-.9-4.1-.2-.1 8.6-19.4 13.2a5.4 5.4 0 0 0-2.3 4.4Z" fill="#2f2e41"/><path d="m296.5 166.7 54.6-42a11.1 11.1 0 0 0 2-15.4 11.1 11.1 0 0 0-16-1.9l-55.3 45.4-34.8 26.1a9.7 9.7 0 1 0 4.3 11.7Z" fill="#ffb6b6"/><path d="m341 176.4-2.4 53.7 81.7 9.9c-6.4-21.6-17-51.6-12.1-66.6Z" fill="#a0616a"/><path d="M387.4 77.9h-25.1l-10.8 18.5-5.2-.3c-10 3.9-14 7.9-19.5 18.5L307.3 131l15 18c10.4-1.7 14-9.8 10.8-24.5 0 0-11.3 19.7 5 29.5 0 0-3 18.3 0 18s9.6-3.8 3-.1-5.7 3.9-5.4 5.1c3.6 20 6.6 35 6.6 35l71 7s-4.1-43-3.9-45.4-1.2 3.5.2-2.4 3.8-3.8 1.5-6 15.4-4.2 8.5-15l23-6-12.8-30.5c0-10.3-16.6-18.7-26.9-18.7h-1.3Z" fill="#e6e6e6"/><path d="M414.2 210.9c-27.8 9.5-52.8 7.4-74-11 0 0-5.9 22-11.9 19s-3 5.5-4.7 8.5c-1.7 3.3.3 8.8-5.5 10.7s-3.6 7.4-5.5 11.4A531.7 531.7 0 0 0 274.3 369c-10.4 52.3 15 140 15 140l24-2 6-114 27.4-48.2s13.5-7.9 5-11.8-2.7-9 3.4-8 13.2-31 13.2-31c-8.8 22 46 217 46 217l23-2-13-272Z" fill="#2f2e41"/><path d="M402.4 31.5c2.7 6.8 10.4 20.1 11.4 27.4l-.4-.4a32.9 32.9 0 0 1-3 4.3 21.1 21.1 0 0 0-7.2-5 25.3 25.3 0 0 1 2.5 9.8c-5 4.3-17.8 1.7-24.2 4-10.3 3.8-21.2 5-32 6.2-3.8.4-8.1.6-10.8-1.6s-1-6.5-2.5-9.6c-10.3-22.6-.8-30.8 7.2-41 1.8-2.2 1.8-5.6 4-7.7 3-3 7.5-4 11.8-4.7a6.4 6.4 0 0 1-5.7-2.8 5.8 5.8 0 0 1 .1-6c1.5-2.5 4.7-4 7.7-4.3a29.2 29.2 0 0 1 9 .7 16 16 0 0 1 5.3 1.8A4.4 4.4 0 0 1 378 7a5.7 5.7 0 0 1-3.4 3.7 15 15 0 0 1-3.8 1 30 30 0 0 1 17.6 3 32 32 0 0 1 14 16.8Z" fill="#2f2e41"/><circle cx="365.7" cy="45.3" r="24.2" fill="#ffb6b6"/><path d="M389 32.3c-1.4 4.3-5.4 5.6-9.2 6.5l-3.5.7L375 38a21.1 21.1 0 0 0-7.2-5 24.9 24.9 0 0 1 2.3 7.6q-3.3.5-6.7.8a7.7 7.7 0 0 1-9-5.5c-2 3.4-4.5 6.6-7.9 8a9.5 9.5 0 0 1-10.8-3.3c-2-2.5-3-5.7-3.9-8.9-1-3.8-1.5-8.1.4-10.5 1.5-2 4-2 6.4-1.8a76.6 76.6 0 0 1 15.5 2.8l.4 1c-.8-5.2 1-10.2 4.5-12 2.4-1.2 5.2-1 8-.8a36 36 0 0 1 10.3 2 19.9 19.9 0 0 1 9.3 7.5c2.5 3.7 3.7 8.8 2.5 12.4Z" fill="#2f2e41"/><path d="M354.4 9.7c.3-.1-.4 0-.1 0a2 2 0 0 1-.4 0s-.2-.1 0 0a2 2 0 0 1-1-.7 8 8 0 0 1-1.3-2.3 8.4 8.4 0 0 0-1.8-3 2 2 0 0 0-3.3.4c-.5 1 0 2.4.3 3.4a10.4 10.4 0 0 0 1.5 3 9.5 9.5 0 0 0 4.4 3.2 10 10 0 0 0 6.2.2 1.5 1.5 0 0 0 0-2.8l-3.3-1.4a1.5 1.5 0 1 0-1.2 2.7l3.4 1.4v-2.7a6 6 0 0 1-1.3.2 5 5 0 0 1-1.4 0 6.2 6.2 0 0 1-1.3-.4 8.6 8.6 0 0 1-.8-.3l-.3-.2-.2-.1a8.5 8.5 0 0 1-1.2-1 3.4 3.4 0 0 1-.4-.4 8 8 0 0 1-.6-.7 7.8 7.8 0 0 1-.7-1.8 7.9 7.9 0 0 1-.3-.8 3.3 3.3 0 0 0 0-.4c-.2-.4 0 .2-.2.3l-.6.5a.8.8 0 0 1-.7-.1q-.1-.2 0 0a4.9 4.9 0 0 1 .4.6 14.2 14.2 0 0 1 .6 1.3 14.3 14.3 0 0 0 1.4 2.6 4.8 4.8 0 0 0 5.3 2 1.5 1.5 0 0 0 .9-1.9 1.5 1.5 0 0 0-2-.8Z" fill="#2f2e41"/><circle cx="316.6" cy="201.4" r="71.7" fill="#fff"/><path d="M316.6 274a72.7 72.7 0 1 1 72.7-72.6 72.8 72.8 0 0 1-72.7 72.7Zm0-143.3a70.7 70.7 0 1 0 70.7 70.7 70.8 70.8 0 0 0-70.7-70.7Z" fill="#3f3d56"/><path d="M306.8 238.7a8 8 0 0 1-6.3-3.2l-19.6-26a8 8 0 1 1 12.8-9.6l12.7 17 33-49.3a8 8 0 1 1 13.2 8.9L313.5 235a8 8 0 0 1-6.4 3.6h-.3Z" fill="#15eb72"/><path d="M237.6 575.7a1.2 1.2 0 0 0 1.2 1.2h253.3a1.2 1.2 0 1 0 0-2.4H238.8a1.2 1.2 0 0 0-1.2 1.2Z" fill="#ccc"/><path d="m462 203.8-23.5-64.7a11.1 11.1 0 0 0-14.1-6.7 11.1 11.1 0 0 0-6.6 14.7l26.4 66.5 14.3 41a9.7 9.7 0 1 0 12.4-.4Z" fill="#ffb6b6"/><path d="m426.6 110.3 19 34s-43.7 15-43.8 12.5 2.1-37.2 2.1-37.2Z" fill="#e6e6e6"/></svg>